<svg width="40" height="40" viewBox="0 0 40 40" fill="none" xmlns="http://www.w3.org/2000/svg">
<path d="M13.1005 19.9995C10.9605 18.5795 8.60052 17.4595 6.04053 16.7795C8.60052 17.4595 10.9605 18.5795 13.1005 19.9995ZM33.9604 16.7795C31.3805 17.4595 28.9805 18.5995 26.8205 20.0594C28.9805 18.5995 31.3805 17.4595 33.9604 16.7795Z" fill="#4EA4DC"/>
<path d="M26.9801 15.2599C26.6201 9.67994 24.3601 4.23997 20.1201 0C15.84 4.27997 13.48 9.71994 13.02 15.2599C15.58 16.6199 17.9401 18.3799 20.0001 20.5199C22.0601 18.3999 24.4201 16.6399 26.9801 15.2599ZM13.98 20.5599C13.7 20.3599 13.38 20.1799 13.08 19.9799C13.38 20.1999 13.7 20.3599 13.98 20.5599ZM26.8201 20.0599C26.5601 20.2399 26.2801 20.3799 26.0201 20.5799C26.2801 20.3799 26.5601 20.2399 26.8201 20.0599ZM20.0001 26.8998C15.7 20.3399 8.36003 15.9999 0 15.9999C0 26.6398 6.72002 35.6398 16.06 38.9798C17.3201 39.4398 18.6401 39.7798 20.0001 39.9998C21.3601 39.7598 22.6601 39.4198 23.9401 38.9798C33.2801 35.6398 40.0001 26.6398 40.0001 15.9999C31.6401 15.9999 24.3001 20.3399 20.0001 26.8998Z" fill="#4EA4DC"/>
</svg>
