<svg width="38" height="38" viewBox="0 0 38 38" fill="none" xmlns="http://www.w3.org/2000/svg">
<path d="M3.79999 7.59988H0V34.1999C0 36.2899 1.71 37.9999 3.79999 37.9999H30.4V34.1999H3.79999V7.59988ZM34.1999 -0.00012207H11.4C9.30999 -0.00012207 7.59999 1.70988 7.59999 3.79988V26.5999C7.59999 28.6899 9.30999 30.3999 11.4 30.3999H34.1999C36.2899 30.3999 37.9999 28.6899 37.9999 26.5999V3.79988C37.9999 1.70988 36.2899 -0.00012207 34.1999 -0.00012207ZM32.2999 17.0999H13.3V13.2999H32.2999V17.0999ZM24.7 24.6999H13.3V20.8999H24.7V24.6999ZM32.2999 9.49988H13.3V5.69988H32.2999V9.49988Z" fill="#4EA4DC"/>
</svg>
