<svg width="10" height="10" viewBox="0 0 10 10" fill="none" xmlns="http://www.w3.org/2000/svg">
<path d="M4.99982 3.33376C4.07899 3.33376 3.33316 4.07962 3.33316 5.00049C3.33316 5.92135 4.07899 6.66721 4.99982 6.66721C5.92065 6.66721 6.66648 5.92135 6.66648 5.00049C6.66648 4.07962 5.92065 3.33376 4.99982 3.33376ZM8.7248 4.58381C8.53313 2.84625 7.15397 1.46703 5.41648 1.27536V0.416992H4.58315V1.27536C2.84566 1.46703 1.4665 2.84625 1.27483 4.58381H0.416504V5.41717H1.27483C1.4665 7.15473 2.84566 8.53395 4.58315 8.72562V9.58398H5.41648V8.72562C7.15397 8.53395 8.53313 7.15473 8.7248 5.41717H9.58313V4.58381H8.7248ZM4.99982 7.91726C3.38941 7.91726 2.08316 6.61096 2.08316 5.00049C2.08316 3.39001 3.38941 2.08372 4.99982 2.08372C6.61023 2.08372 7.91647 3.39001 7.91647 5.00049C7.91647 6.61096 6.61023 7.91726 4.99982 7.91726Z" fill="white"/>
</svg>
