<svg width="10" height="11" viewBox="0 0 10 11" fill="none" xmlns="http://www.w3.org/2000/svg">
<path d="M9.44444 7.44429C8.77778 7.44429 8.11111 7.33318 7.44444 7.11095C7.27778 7.05539 7.05553 7.11095 6.88889 7.22206L5.66667 8.44434C4.11113 7.66653 2.83333 6.33313 2 4.7775L3.22222 3.55522C3.38889 3.38854 3.44444 3.16631 3.33333 2.99963C3.16667 2.38849 3.05556 1.72179 3.05556 1.05509C3.05556 0.721745 2.83333 0.499512 2.5 0.499512H0.555556C0.222222 0.499512 0 0.721745 0 1.05509C0 6.27757 4.22222 10.5 9.44444 10.5C9.77778 10.5 10 10.2778 10 9.94442V7.99988C10 7.66653 9.77778 7.44429 9.44444 7.44429ZM8.88889 5.49976H10C10 2.72184 7.77778 0.499512 5 0.499512V1.61068C7.16667 1.61068 8.88889 3.33298 8.88889 5.49976ZM6.66667 5.49976H7.77778C7.77778 3.94412 6.55556 2.72184 5 2.72184V3.83301C5.94444 3.83301 6.66667 4.55527 6.66667 5.49976Z" fill="white"/>
</svg>
