<svg aria-hidden="true" style="position: absolute; width: 0; height: 0; overflow: hidden;" version="1.1" xmlns="http://www.w3.org/2000/svg" xmlns:xlink="http://www.w3.org/1999/xlink">
<defs>
<symbol id="animation" viewBox="0 0 32 32">
<path  d="M10.48 16c-1.712-1.136-3.6-2.032-5.648-2.576 2.048 0.544 3.936 1.44 5.648 2.576zM27.168 13.424c-2.064 0.544-3.984 1.456-5.712 2.624 1.728-1.168 3.648-2.080 5.712-2.624z"></path>
<path  d="M21.584 12.208c-0.288-4.464-2.096-8.816-5.488-12.208-3.424 3.424-5.312 7.776-5.68 12.208 2.048 1.088 3.936 2.496 5.584 4.208 1.648-1.696 3.536-3.104 5.584-4.208zM11.184 16.448c-0.224-0.16-0.48-0.304-0.72-0.464 0.24 0.176 0.496 0.304 0.72 0.464zM21.456 16.048c-0.208 0.144-0.432 0.256-0.64 0.416 0.208-0.16 0.432-0.272 0.64-0.416zM16 21.52c-3.44-5.248-9.312-8.72-16-8.72 0 8.512 5.376 15.712 12.848 18.384 1.008 0.368 2.064 0.64 3.152 0.816 1.088-0.192 2.128-0.464 3.152-0.816 7.472-2.672 12.848-9.872 12.848-18.384-6.688 0-12.56 3.472-16 8.72z"></path>
</symbol>
<symbol id="documented" viewBox="0 0 32 32">
<path  d="M3.2 6.4h-3.2v22.4c0 1.76 1.44 3.2 3.2 3.2h22.4v-3.2h-22.4v-22.4zM28.8-0h-19.2c-1.76 0-3.2 1.44-3.2 3.2v19.2c0 1.76 1.44 3.2 3.2 3.2h19.2c1.76 0 3.2-1.44 3.2-3.2v-19.2c0-1.76-1.44-3.2-3.2-3.2zM27.2 14.4h-16v-3.2h16v3.2zM20.8 20.8h-9.6v-3.2h9.6v3.2zM27.2 8h-16v-3.2h16v3.2z"></path>
</symbol>
<symbol id="faceboock" viewBox="0 0 16 32">
<path  d="M10 11.001v-4c0-1.104 0.896-2 2-2h2v-5h-4c-3.314 0-6 2.686-6 6v5h-4v5h4v16h6v-16h4l2-5h-6z"></path>
</symbol>
<symbol id="instagram" viewBox="0 0 32 32">
<path fill="#fff" style="fill: var(--color2, #fff)" d="M18.813 16c0 1.553-1.259 2.813-2.813 2.813s-2.813-1.259-2.813-2.813c0-1.553 1.259-2.813 2.813-2.813s2.813 1.259 2.813 2.813z"></path>
<path fill="#fff" style="fill: var(--color2, #fff)" d="M20.75 7.5h-9.5c-2.068 0-3.75 1.682-3.75 3.75v9.5c0 2.068 1.682 3.75 3.75 3.75h9.5c2.068 0 3.75-1.682 3.75-3.75v-9.5c0-2.068-1.682-3.75-3.75-3.75zM16 20.688c-2.585 0-4.688-2.103-4.688-4.688s2.103-4.688 4.688-4.688c2.585 0 4.688 2.103 4.688 4.688s-2.103 4.688-4.688 4.688zM21.375 11.563c-0.518 0-0.938-0.42-0.938-0.938s0.42-0.938 0.938-0.938c0.518 0 0.938 0.42 0.938 0.938s-0.42 0.938-0.938 0.938z"></path>
<path fill="#fff" style="fill: var(--color2, #fff)" d="M23.563 0h-15.125c-4.652 0-8.438 3.785-8.438 8.438v15.125c0 4.652 3.785 8.438 8.438 8.438h15.125c4.652 0 8.438-3.785 8.438-8.438v-15.125c0-4.652-3.785-8.438-8.438-8.438zM26.375 20.75c0 3.102-2.523 5.625-5.625 5.625h-9.5c-3.102 0-5.625-2.523-5.625-5.625v-9.5c0-3.102 2.523-5.625 5.625-5.625h9.5c3.102 0 5.625 2.523 5.625 5.625v9.5z"></path>
</symbol>
<symbol id="linledin" viewBox="0 0 32 32">
<path fill="#fff" style="fill: var(--color2, #fff)" d="M0 10h7.156v22h-7.156v-22z"></path>
<path fill="#fff" style="fill: var(--color2, #fff)" d="M26.648 10.258c-0.076-0.024-0.148-0.050-0.228-0.072-0.096-0.022-0.193-0.040-0.29-0.056-0.38-0.076-0.796-0.13-1.284-0.13-4.172 0-6.818 3.034-7.69 4.206v-4.206h-7.156v22h7.156v-12c0 0 5.408-7.532 7.69-2v14h7.154v-14.846c0-3.324-2.278-6.094-5.352-6.896z"></path>
<path fill="#fff" style="fill: var(--color2, #fff)" d="M3.5 6.998c1.933 0 3.5-1.567 3.5-3.499s-1.567-3.499-3.5-3.499-3.5 1.567-3.5 3.499c0 1.933 1.567 3.499 3.5 3.499z"></path>
</symbol>
<symbol id="mail" viewBox="0 0 40 32">
<path fill="#fff" style="fill: var(--color2, #fff)" d="M36-0.002h-32c-2.2 0-4 1.688-4 3.75v22.5c0 2.063 1.8 3.75 4 3.75h32c2.2 0 4-1.687 4-3.75v-22.5c0-2.063-1.8-3.75-4-3.75zM36 7.498l-16 9.375-16-9.375v-3.75l16 9.375 16-9.375v3.75z"></path>
</symbol>
<symbol id="perspective" viewBox="0 0 30 32">
<path  d="M3.048 13.714v10.667h4.571v-10.667h-4.571zM12.191 13.714v10.667h4.571v-10.667h-4.571zM0 32h28.952v-4.571h-28.952v4.571zM21.333 13.714v10.667h4.571v-10.667h-4.571zM14.476 0l-14.476 7.619v3.048h28.952v-3.048l-14.476-7.619z"></path>
</symbol>
<symbol id="skype" viewBox="0 0 32 32">
<path fill="#fff" style="fill: var(--color2, #fff)" d="M31.080 19.396c0.232-1.042 0.352-2.122 0.352-3.23 0-8.31-6.832-15.048-15.262-15.048-0.888 0-1.76 0.076-2.61 0.22-1.364-0.846-2.978-1.338-4.708-1.338-4.89 0-8.852 3.906-8.852 8.728 0 1.61 0.444 3.116 1.216 4.414-0.206 0.995-0.31 2.008-0.31 3.024 0 8.312 6.834 15.050 15.262 15.050 0.956 0 1.89-0.088 2.796-0.252 1.248 0.66 2.672 1.036 4.186 1.036 4.888 0 8.85-3.908 8.85-8.726 0-1.394-0.332-2.708-0.92-3.878zM23.998 23.358c-0.706 0.986-1.748 1.766-3.102 2.318-1.338 0.55-2.94 0.83-4.768 0.83-2.192 0-4.030-0.38-5.466-1.132-1.026-0.546-1.87-1.284-2.512-2.2-0.65-0.92-0.976-1.834-0.976-2.718 0-0.55 0.214-1.028 0.636-1.418 0.418-0.39 0.954-0.584 1.594-0.584 0.524 0 0.976 0.154 1.344 0.46 0.35 0.294 0.652 0.73 0.894 1.288 0.27 0.612 0.564 1.128 0.874 1.53 0.302 0.394 0.732 0.722 1.282 0.98 0.554 0.256 1.3 0.39 2.216 0.39 1.262 0 2.298-0.266 3.074-0.79 0.762-0.51 1.13-1.126 1.13-1.878 0-0.592-0.194-1.060-0.588-1.426-0.416-0.384-0.964-0.682-1.628-0.888-0.694-0.212-1.636-0.444-2.8-0.684-1.586-0.334-2.932-0.73-4-1.18-1.094-0.46-1.978-1.096-2.622-1.892-0.656-0.81-0.988-1.824-0.988-3.016 0-1.136 0.348-2.16 1.036-3.044 0.682-0.878 1.678-1.564 2.964-2.030 1.266-0.462 2.772-0.696 4.478-0.696 1.362 0 2.56 0.156 3.562 0.464 1.006 0.308 1.854 0.724 2.52 1.238 0.672 0.52 1.172 1.070 1.484 1.646 0.316 0.58 0.478 1.158 0.478 1.716 0 0.538-0.21 1.028-0.626 1.452-0.42 0.43-0.948 0.646-1.568 0.646-0.564 0-1.008-0.138-1.314-0.404-0.286-0.25-0.584-0.64-0.912-1.196-0.38-0.712-0.842-1.274-1.37-1.672-0.514-0.386-1.37-0.578-2.55-0.578-1.092 0-1.984 0.216-2.644 0.644-0.636 0.41-0.946 0.882-0.946 1.442 0 0.342 0.1 0.628 0.306 0.874 0.216 0.264 0.522 0.49 0.91 0.682 0.4 0.198 0.814 0.358 1.228 0.47 0.424 0.116 1.134 0.29 2.112 0.512 1.236 0.26 2.37 0.554 3.374 0.872 1.018 0.318 1.894 0.712 2.614 1.174 0.73 0.47 1.308 1.070 1.72 1.79 0.412 0.726 0.62 1.616 0.62 2.652-0.002 1.238-0.362 2.368-1.070 3.356z"></path>
</symbol>
<symbol id="tell_1" viewBox="0 0 29 32">
<path fill="#fff" style="fill: var(--color2, #fff)" d="M27.475 21.656c-1.939 0-3.879-0.323-5.818-0.97-0.485-0.162-1.131 0-1.616 0.323l-3.556 3.556c-4.525-2.263-8.242-6.142-10.667-10.667l3.556-3.556c0.485-0.485 0.646-1.131 0.323-1.616-0.485-1.778-0.808-3.717-0.808-5.657 0-0.97-0.646-1.616-1.616-1.616h-5.657c-0.97 0-1.616 0.646-1.616 1.616 0 15.193 12.283 27.476 27.475 27.476 0.97 0 1.616-0.646 1.616-1.616v-5.657c0-0.97-0.646-1.616-1.616-1.616zM25.859 15.999h3.232c0-8.081-6.465-14.546-14.545-14.546v3.232c6.303 0 11.313 5.010 11.313 11.314zM19.394 15.999h3.232c0-4.525-3.556-8.081-8.081-8.081v3.232c2.747 0 4.849 2.101 4.849 4.849z"></path>
</symbol>
<symbol id="tell_2" viewBox="0 0 32 32">
<path fill="#fff" style="fill: var(--color2, #fff)" d="M15.999 10.668c-2.947 0-5.333 2.387-5.333 5.334s2.387 5.334 5.333 5.334 5.333-2.387 5.333-5.334c0-2.947-2.387-5.334-5.333-5.334zM27.919 14.668c-0.613-5.56-5.027-9.974-10.587-10.587v-2.747h-2.667v2.747c-5.56 0.613-9.973 5.027-10.587 10.587h-2.747v2.667h2.747c0.613 5.56 5.027 9.974 10.587 10.587v2.747h2.667v-2.747c5.56-0.613 9.973-5.027 10.587-10.587h2.747v-2.667h-2.747zM15.999 25.335c-5.153 0-9.333-4.18-9.333-9.334s4.18-9.334 9.333-9.334 9.333 4.18 9.333 9.334c0 5.154-4.18 9.334-9.333 9.334z"></path>
</symbol>
</defs>
</svg>
